<svg width="51" height="51" viewBox="0 0 51 51" fill="none" xmlns="http://www.w3.org/2000/svg">
<path fill-rule="evenodd" clip-rule="evenodd" d="M13 25.5C13 25.0856 13.1646 24.6882 13.4576 24.3952C13.7507 24.1021 14.1481 23.9375 14.5625 23.9375H32.6656L25.9562 17.2313C25.6629 16.9379 25.498 16.5399 25.498 16.125C25.498 15.7101 25.6629 15.3122 25.9562 15.0188C26.2496 14.7254 26.6476 14.5605 27.0625 14.5605C27.4774 14.5605 27.8754 14.7254 28.1688 15.0188L37.5438 24.3938C37.6893 24.5389 37.8047 24.7113 37.8835 24.9012C37.9622 25.091 38.0028 25.2945 38.0028 25.5C38.0028 25.7055 37.9622 25.909 37.8835 26.0989C37.8047 26.2887 37.6893 26.4611 37.5438 26.6063L28.1688 35.9813C27.8754 36.2747 27.4774 36.4395 27.0625 36.4395C26.6476 36.4395 26.2496 36.2747 25.9562 35.9813C25.6629 35.6879 25.498 35.2899 25.498 34.875C25.498 34.4601 25.6629 34.0622 25.9562 33.7688L32.6656 27.0625H14.5625C14.1481 27.0625 13.7507 26.8979 13.4576 26.6049C13.1646 26.3119 13 25.9144 13 25.5Z" fill="white"/>
</svg>
