<svg width="50" height="50" viewBox="0 0 50 50" fill="none" xmlns="http://www.w3.org/2000/svg">
<path d="M35.9375 18.834C35.9375 19.2484 35.7729 19.6458 35.4799 19.9388C35.1868 20.2319 34.7894 20.3965 34.375 20.3965C33.9606 20.3965 33.5632 20.2319 33.2701 19.9388C32.9771 19.6458 32.8125 19.2484 32.8125 18.834C32.8125 18.4196 32.9771 18.0222 33.2701 17.7291C33.5632 17.4361 33.9606 17.2715 34.375 17.2715C34.7894 17.2715 35.1868 17.4361 35.4799 17.7291C35.7729 18.0222 35.9375 18.4196 35.9375 18.834ZM31.25 23.5215C31.6644 23.5215 32.0618 23.3569 32.3549 23.0638C32.6479 22.7708 32.8125 22.3734 32.8125 21.959C32.8125 21.5446 32.6479 21.1472 32.3549 20.8541C32.0618 20.5611 31.6644 20.3965 31.25 20.3965C30.8356 20.3965 30.4382 20.5611 30.1451 20.8541C29.8521 21.1472 29.6875 21.5446 29.6875 21.959C29.6875 22.3734 29.8521 22.7708 30.1451 23.0638C30.4382 23.3569 30.8356 23.5215 31.25 23.5215ZM39.0625 21.959C39.0625 22.3734 38.8979 22.7708 38.6049 23.0638C38.3118 23.3569 37.9144 23.5215 37.5 23.5215C37.0856 23.5215 36.6882 23.3569 36.3951 23.0638C36.1021 22.7708 35.9375 22.3734 35.9375 21.959C35.9375 21.5446 36.1021 21.1472 36.3951 20.8541C36.6882 20.5611 37.0856 20.3965 37.5 20.3965C37.9144 20.3965 38.3118 20.5611 38.6049 20.8541C38.8979 21.1472 39.0625 21.5446 39.0625 21.959ZM34.375 26.6465C34.7894 26.6465 35.1868 26.4819 35.4799 26.1888C35.7729 25.8958 35.9375 25.4984 35.9375 25.084C35.9375 24.6696 35.7729 24.2722 35.4799 23.9791C35.1868 23.6861 34.7894 23.5215 34.375 23.5215C33.9606 23.5215 33.5632 23.6861 33.2701 23.9791C32.9771 24.2722 32.8125 24.6696 32.8125 25.084C32.8125 25.4984 32.9771 25.8958 33.2701 26.1888C33.5632 26.4819 33.9606 26.6465 34.375 26.6465ZM14.0625 17.2715H17.1875V20.3965H20.3125V23.5215H17.1875V26.6465H14.0625V23.5215H10.9375V20.3965H14.0625V17.2715Z" fill="white"/>
<path d="M9.53571 10.187C9.48233 9.98856 9.46861 9.78155 9.49535 9.57783C9.52208 9.3741 9.58873 9.17764 9.69148 8.9997C9.79424 8.82177 9.93108 8.66584 10.0942 8.54086C10.2573 8.41588 10.4434 8.3243 10.642 8.27135L16.6795 6.6526C16.887 6.59729 17.1037 6.58537 17.3161 6.61758C17.5285 6.64979 17.7319 6.72545 17.9138 6.83982C18.0956 6.95419 18.2519 7.10482 18.3729 7.2823C18.4938 7.45979 18.5769 7.66031 18.617 7.87135C20.6638 7.62448 22.8357 7.50573 25.0013 7.50573C27.2513 7.50573 29.5107 7.63385 31.6263 7.89948C31.6629 7.68524 31.7437 7.48097 31.8636 7.29974C31.9836 7.11851 32.14 6.96429 32.323 6.84694C32.5059 6.7296 32.7113 6.65171 32.926 6.61824C33.1408 6.58478 33.3601 6.59648 33.5701 6.6526L39.6076 8.27135C39.838 8.33302 40.0512 8.44661 40.2309 8.60341C40.4105 8.76021 40.552 8.95606 40.6443 9.17596C40.7366 9.39586 40.7773 9.63397 40.7634 9.87205C40.7494 10.1101 40.6812 10.3419 40.5638 10.5495C41.0013 10.8307 41.3951 11.1432 41.7295 11.4776C43.0045 12.7526 44.167 14.7589 45.1513 17.0151C46.1513 19.3057 47.0232 21.987 47.667 24.7214C48.3107 27.4557 48.7295 30.2839 48.8045 32.8651C48.8795 35.4151 48.6201 37.8714 47.7795 39.7714C47.3961 40.6244 46.7531 41.3345 45.9421 41.8003C45.1312 42.2661 44.1938 42.4637 43.2638 42.3651C41.2763 42.1557 39.7795 41.1339 38.5357 39.9495C37.7701 39.2245 36.9857 38.3057 36.2263 37.4245C35.8326 36.962 35.4451 36.512 35.0763 36.1026C32.8013 33.5901 30.0857 31.3307 25.0013 31.3307C19.917 31.3307 17.2013 33.5901 14.9263 36.1026C14.5545 36.512 14.1701 36.962 13.7763 37.4245C13.017 38.3057 12.2326 39.2214 11.467 39.9495C10.2232 41.137 8.72633 42.1557 6.73883 42.3651C5.80885 42.4637 4.87148 42.2661 4.06054 41.8003C3.2496 41.3345 2.60656 40.6244 2.22321 39.7714C1.37946 37.8714 1.12321 35.412 1.19508 32.8651C1.27008 30.2839 1.69508 27.4589 2.33571 24.7214C2.97946 21.987 3.85446 19.3057 4.85133 17.0151C5.83571 14.7589 6.99821 12.7526 8.27008 11.4776C8.67861 11.0769 9.13276 10.7255 9.62321 10.4307C9.58724 10.351 9.55797 10.2716 9.53571 10.187ZM15.8982 11.4745C13.1576 12.0526 11.3076 12.8589 10.4826 13.687C9.62008 14.5495 8.64821 16.1339 7.71696 18.2651C6.72902 20.5826 5.94684 22.9824 5.37946 25.437C4.78007 27.9023 4.42523 30.4207 4.32008 32.9557C4.25133 35.3151 4.51383 37.2307 5.07946 38.5057C5.19529 38.7541 5.38595 38.9599 5.62469 39.0944C5.86343 39.2289 6.13829 39.2853 6.41071 39.2557C7.43258 39.1495 8.31696 38.6339 9.31383 37.687C9.97633 37.0557 10.5638 36.3651 11.2357 35.5807C11.6513 35.0932 12.0982 34.5714 12.6107 34.0057C15.192 31.1526 18.6826 28.2089 25.0013 28.2089C31.3201 28.2089 34.8107 31.1526 37.392 34.0057C37.9045 34.5714 38.3513 35.0932 38.767 35.5807C39.4357 36.3651 40.0263 37.0557 40.6888 37.687C41.6826 38.6339 42.567 39.1495 43.592 39.2589C43.8647 39.2882 44.1398 39.2313 44.3786 39.0962C44.6174 38.9612 44.8079 38.7546 44.9232 38.5057C45.4857 37.2307 45.7513 35.3182 45.6826 32.9557C45.5774 30.4208 45.2225 27.9023 44.6232 25.437C44.0557 22.9825 43.2736 20.5826 42.2857 18.2651C41.3545 16.1339 40.3795 14.5464 39.5201 13.687C38.6951 12.8589 36.8451 12.0526 34.1045 11.4745C31.4482 10.9151 28.2388 10.6307 25.0013 10.6307C21.7638 10.6307 18.5545 10.9151 15.8982 11.4745Z" fill="white"/>
</svg>
