<svg width="113" height="84" viewBox="0 0 113 84" fill="none" xmlns="http://www.w3.org/2000/svg">
<g clip-path="url(#clip0_451_2067)">
<path d="M82.5905 63.6282H63.0668V69.6044H76.6143L76.6289 69.9167C74.8048 75.1225 70.6214 78.1168 64.0226 78.1168C56.3972 78.1168 50.648 72.0073 50.648 64.2778C50.648 56.2422 56.6346 49.8996 64.5723 49.8996C70.6568 49.8996 74.9838 52.8856 77.4514 58.2288L83.0507 55.6467C79.5899 48.1504 73.0285 44.0254 64.5723 44.0254C53.3071 44.0254 44.4844 52.9251 44.4844 64.2862C44.4844 75.3453 53.0655 84.0076 64.0226 84.0076C69.7406 84.0076 74.0572 81.7005 77.1765 78.1002L77.7387 82.6H82.5905V64.1946L82.6217 64.0092H82.5905V63.6282Z" fill="#E1251B"/>
<path d="M82.5928 31.2949H51.7164V21.4394H79.0362V15.7255H51.7164V5.87209H82.5928V0H45.4258V37.167H82.5928V31.2949Z" fill="#E1251B"/>
<path d="M30.8243 15.359H6.29063V0H0V37.167H6.29063V21.2832H30.8243V37.167H37.167V0H30.8243V15.359Z" fill="#E1251B"/>
<path d="M21.7288 76.6686V51.3499H37.167V45.4258H0V51.3499H15.4382V76.6686H0V82.5928H37.167V76.6686H21.7288Z" fill="#E1251B"/>
<path d="M98.554 0H101.071L97.1901 10.6197H94.7455L90.8516 0H93.4607L96.0219 7.47546L98.554 0Z" fill="#E1251B"/>
<path d="M103.031 10.6197V0H106.881C110.074 0 112.214 2.03857 112.214 5.32028C112.214 8.60198 110.074 10.6197 106.867 10.6197H103.031ZM106.779 8.38751C108.414 8.38751 109.749 7.44214 109.749 5.31611C109.749 3.19008 108.414 2.22806 106.779 2.22806H105.403V8.39167L106.779 8.38751Z" fill="#E1251B"/>
</g>
<defs>
<clipPath id="clip0_451_2067">
<rect width="112.213" height="84" fill="white"/>
</clipPath>
</defs>
</svg>
