<svg width="103" height="100" viewBox="0 0 103 100" fill="none" xmlns="http://www.w3.org/2000/svg">
<path d="M11.2325 55.3058V63.6335H13.1696V51.2594H11.8121L6.58332 58.8069L1.35452 51.2594H0V63.6335H1.93714V55.3058L5.90606 60.9827H7.26058L11.2325 55.3058ZM24.3843 59.8327C24.3971 59.7152 24.403 59.5972 24.4021 59.4791C24.4021 57.0226 22.5625 55.1601 20.025 55.1601C17.4875 55.1601 15.5888 56.9983 15.5888 59.4791C15.5744 60.0481 15.6861 60.6138 15.9173 61.1424C16.1485 61.6709 16.4944 62.1513 16.9342 62.5548C17.3739 62.9582 17.8986 63.2763 18.4765 63.49C19.0544 63.7036 19.6737 63.8085 20.2971 63.7981C22.1544 63.7981 23.4527 63.0369 24.1418 62.2406L22.9588 61.1986C22.646 61.5649 22.2445 61.86 21.7858 62.0609C21.3271 62.2619 20.8236 62.3631 20.3148 62.3566C19.566 62.36 18.844 62.1019 18.2969 61.6352C17.7498 61.1684 17.419 60.5284 17.3722 59.8462L24.3843 59.8327ZM20.0842 56.615C20.6452 56.6321 21.1842 56.8183 21.6171 57.1445C22.05 57.4707 22.3522 57.9186 22.4768 58.4182H17.526C17.6765 57.9031 18.0085 57.4475 18.4708 57.1216C18.9332 56.7958 19.5001 56.6178 20.0842 56.615ZM33.3691 63.6335H35.1436V51.084H33.304V56.0482C32.6026 55.5346 31.7486 55.2249 30.8524 55.159C29.9561 55.0931 29.0588 55.274 28.2764 55.6783C27.5571 56.0709 26.9627 56.628 26.5519 57.2946C26.141 57.9613 25.9281 58.7143 25.934 59.4791C25.9253 60.2396 26.1355 60.9888 26.5434 61.652C26.9513 62.3152 27.5427 62.869 28.2586 63.2582C28.956 63.6148 29.7425 63.8008 30.5418 63.7981C31.5727 63.8125 32.5732 63.4789 33.3514 62.8614V63.62L33.3691 63.6335ZM33.31 61.0339C33.023 61.3946 32.6481 61.6893 32.2149 61.895C31.7817 62.1006 31.3021 62.2116 30.8139 62.219C30.417 62.2259 30.0227 62.1598 29.6544 62.0247C29.2861 61.8896 28.9514 61.6882 28.6702 61.4326C28.389 61.1769 28.167 60.8722 28.0176 60.5366C27.8681 60.201 27.7942 59.8413 27.8002 59.4791C27.7883 59.1223 27.8552 58.7669 27.997 58.4342C28.1388 58.1014 28.3526 57.7982 28.6255 57.5425C28.8985 57.2868 29.2251 57.0839 29.5858 56.9459C29.9465 56.8079 30.334 56.7376 30.7251 56.7392C31.2281 56.7416 31.7238 56.8497 32.1736 57.0553C32.6234 57.2608 33.0153 57.5581 33.3188 57.9242V61.0339H33.31ZM38.2489 63.6335H40.0885V55.3382H38.2489V63.647V63.6335ZM37.9532 52.3743C37.9508 52.5188 37.9802 52.6623 38.0397 52.7963C38.0992 52.9302 38.1876 53.0519 38.2995 53.1541C38.4115 53.2563 38.5448 53.337 38.6916 53.3913C38.8384 53.4456 38.9956 53.4724 39.1539 53.4702C39.3132 53.4728 39.4714 53.4462 39.6193 53.3923C39.7672 53.3383 39.9019 53.2579 40.0153 53.1559C40.1288 53.0538 40.2188 52.9321 40.2801 52.7979C40.3414 52.6637 40.3728 52.5197 40.3724 52.3743C40.3736 52.2278 40.3429 52.0826 40.2821 51.947C40.2213 51.8114 40.1317 51.6882 40.0183 51.5845C39.905 51.4808 39.7702 51.3987 39.6218 51.3429C39.4734 51.2871 39.3144 51.2587 39.1539 51.2594C38.9944 51.2591 38.8363 51.2878 38.6891 51.3439C38.5419 51.4 38.4084 51.4824 38.2966 51.5863C38.1847 51.6901 38.0967 51.8133 38.0377 51.9487C37.9788 52.084 37.95 52.2287 37.9532 52.3743ZM49.8304 63.6335H51.6049V55.3382H49.8304V56.0995C49.0394 55.4802 48.0272 55.147 46.9853 55.1628C46.2023 55.1561 45.4318 55.3427 44.7554 55.7026C44.0365 56.0956 43.4424 56.6528 43.0317 57.3193C42.6209 57.9859 42.4077 58.7387 42.413 59.5034C42.4044 60.2639 42.6145 61.0131 43.0224 61.6763C43.4303 62.3395 44.0217 62.8933 44.7376 63.2825C45.4362 63.6387 46.2235 63.8247 47.0237 63.8224C48.0537 63.8364 49.0532 63.5028 49.8304 62.8857V63.6443V63.6335ZM49.7742 61.0339C49.4863 61.3943 49.1108 61.6888 48.6772 61.8945C48.2436 62.1001 47.7637 62.2112 47.2751 62.219C46.8778 62.2266 46.4828 62.1611 46.1139 62.0263C45.7449 61.8916 45.4094 61.6903 45.1276 61.4346C44.8457 61.1788 44.6233 60.8738 44.4734 60.5379C44.3236 60.2019 44.2495 59.8418 44.2555 59.4791C44.2432 59.1224 44.3098 58.7671 44.4513 58.4344C44.5927 58.1017 44.8062 57.7984 45.0789 57.5427C45.3516 57.2869 45.678 57.084 46.0386 56.9459C46.3992 56.8079 46.7865 56.7376 47.1775 56.7392C47.6809 56.7418 48.1769 56.85 48.6272 57.0555C49.0774 57.261 49.4699 57.5582 49.7742 57.9242V61.0339ZM1.93714 74.2934V71.1108H7.74857V69.4344H0V81.8085H7.9408V80.1267H1.93714V75.9724H6.39109V74.2934H1.93714ZM11.9482 73.497H10.1737V81.8085H12.0073V76.0965C12.3184 75.7335 12.7148 75.4388 13.1673 75.2341C13.6198 75.0295 14.1168 74.9202 14.6217 74.9142C14.9816 74.9123 15.3374 74.984 15.6629 75.1242C15.9885 75.2643 16.2754 75.4693 16.5027 75.724C16.8309 76.0965 17.0439 76.5932 17.0439 77.6541V81.8085H18.8834V77.7432C18.8834 76.3125 18.5729 75.4622 17.9962 74.7927C17.6027 74.3342 17.0999 73.9636 16.5259 73.7092C15.9519 73.4547 15.3219 73.3231 14.6838 73.3243C13.6701 73.3165 12.6919 73.6644 11.9511 74.2961V73.4862L11.9482 73.497ZM28.3739 81.0823V81.5412C28.3739 82.5859 28.1995 83.2202 27.8682 83.6791C27.4246 84.3 26.6497 84.6347 25.6619 84.6347C24.1832 84.6347 23.3196 83.9464 22.6601 83.1501L21.2938 84.3C21.8853 85.1314 23.364 86.2247 25.73 86.2247C27.5311 86.2247 28.927 85.4661 29.6604 84.1758C30.0301 83.5199 30.2046 82.6912 30.2046 81.4521V73.497H28.4301V74.2583C27.729 73.7321 26.87 73.4119 25.9658 73.3396C25.0616 73.2674 24.1546 73.4465 23.364 73.8534C22.644 74.2453 22.0488 74.8023 21.6374 75.469C21.2261 76.1357 21.0128 76.889 21.0187 77.6541C21.01 78.4146 21.2201 79.1639 21.6281 79.827C22.036 80.4902 22.6274 81.044 23.3433 81.4332C24.0424 81.7883 24.8294 81.9742 25.6294 81.9731C26.6365 81.9915 27.6157 81.6705 28.3799 81.0715L28.3739 81.0823ZM28.3739 79.2089C28.0857 79.5688 27.7101 79.8628 27.2765 80.068C26.8429 80.2731 26.3632 80.3838 25.8749 80.3913C25.4778 80.3989 25.0831 80.3335 24.7143 80.1989C24.3455 80.0643 24.0102 79.8633 23.7284 79.6078C23.4466 79.3523 23.2241 79.0477 23.0741 78.712C22.9241 78.3764 22.8497 78.0166 22.8553 77.6541C22.843 77.2974 22.9095 76.9421 23.051 76.6094C23.1925 76.2767 23.406 75.9734 23.6787 75.7177C23.9514 75.4619 24.2778 75.259 24.6384 75.1209C24.9989 74.9829 25.3863 74.9126 25.7773 74.9142C26.2805 74.9163 26.7764 75.024 27.2267 75.229C27.6769 75.434 28.0695 75.7309 28.3739 76.0965V79.2089ZM33.3129 81.8085H35.1525V73.497H33.3129V81.8085ZM33.0172 70.5466C33.0148 70.6911 33.0442 70.8346 33.1037 70.9686C33.1632 71.1025 33.2515 71.2242 33.3635 71.3264C33.4755 71.4286 33.6088 71.5093 33.7556 71.5636C33.9023 71.6179 34.0596 71.6447 34.2179 71.6425C34.3772 71.6451 34.5354 71.6186 34.6833 71.5646C34.8312 71.5106 34.9659 71.4302 35.0793 71.3282C35.1928 71.2261 35.2828 71.1044 35.3441 70.9702C35.4054 70.836 35.4368 70.692 35.4364 70.5466C35.4372 70.4003 35.4062 70.2554 35.3452 70.1202C35.2843 69.9849 35.1945 69.862 35.0812 69.7586C34.9679 69.6552 34.8333 69.5733 34.6851 69.5177C34.5369 69.462 34.3781 69.4337 34.2179 69.4344C34.0586 69.4341 33.9008 69.4627 33.7538 69.5187C33.6068 69.5746 33.4734 69.6568 33.3616 69.7603C33.2498 69.8639 33.1618 69.9868 33.1026 70.1218C33.0435 70.2568 33.0144 70.4012 33.0172 70.5466ZM40.0323 73.497H38.2578V81.8085H40.0973V76.0965C40.4081 75.7332 40.8045 75.4383 41.257 75.2336C41.7096 75.029 42.2067 74.9198 42.7118 74.9142C43.0712 74.9123 43.4266 74.9841 43.7516 75.1242C44.0767 75.2644 44.3631 75.4694 44.5897 75.724C44.918 76.0965 45.131 76.5932 45.131 77.6541V81.8085H46.9735V77.7432C46.9735 76.3125 46.6629 75.4622 46.0862 74.7927C45.6927 74.3342 45.1899 73.9636 44.6159 73.7092C44.0419 73.4547 43.412 73.3231 42.7739 73.3243C41.761 73.3164 40.7836 73.6643 40.0441 74.2961V73.4862L40.0323 73.497ZM57.8895 78.0131C57.9044 77.8966 57.9113 77.7795 57.9102 77.6622C57.9102 75.2031 56.0677 73.3297 53.5331 73.3297C50.9986 73.3297 49.0969 75.168 49.0969 77.6622C49.0821 78.231 49.1934 78.7967 49.4243 79.3253C49.6551 79.8538 50.0007 80.3343 50.4403 80.7377C50.8799 81.1412 51.4043 81.4594 51.9821 81.6731C52.5598 81.8868 53.179 81.9916 53.8023 81.9812C55.6625 81.9812 56.9608 81.2227 57.647 80.4264L56.4462 79.3817C56.1338 79.7397 55.7357 80.0277 55.2826 80.2237C54.8295 80.4198 54.3332 80.5186 53.8318 80.5128C53.0804 80.5196 52.3548 80.2631 51.8045 79.796C51.2542 79.3289 50.9213 78.6869 50.8744 78.0023L57.8895 78.0131ZM53.5893 74.79C54.1517 74.8058 54.6926 74.9914 55.1271 75.3176C55.5617 75.6439 55.8654 76.0925 55.9908 76.5932H51.0341C51.1818 76.0772 51.5127 75.6203 51.975 75.2941C52.4373 74.9679 53.005 74.7906 53.5893 74.79ZM68.2524 78.0131C68.2652 77.8965 68.2711 77.7794 68.2702 77.6622C68.2702 75.2031 66.4306 73.3297 63.8931 73.3297C61.3556 73.3297 59.4569 75.168 59.4569 77.6622C59.4421 78.231 59.5534 78.7967 59.7843 79.3253C60.0151 79.8538 60.3608 80.3343 60.8003 80.7377C61.2399 81.1412 61.7643 81.4594 62.3421 81.6731C62.9198 81.8868 63.539 81.9916 64.1623 81.9812C66.0196 81.9812 67.3179 81.2227 68.007 80.4264L66.8062 79.3817C66.4941 79.74 66.0961 80.0282 65.6429 80.2243C65.1897 80.4204 64.6933 80.519 64.1918 80.5128C63.4402 80.5203 62.7142 80.2639 62.1637 79.7967C61.6133 79.3295 61.2806 78.6871 61.2344 78.0023L68.2524 78.0131ZM63.9523 74.7981C64.5144 74.814 65.0547 74.9997 65.4888 75.326C65.9229 75.6523 66.226 76.1009 66.3508 76.6013H61.3941C61.5419 76.0848 61.8732 75.6277 62.3361 75.3014C62.799 74.9751 63.3674 74.7981 63.9523 74.7981ZM75.8236 73.3756C75.587 73.3396 75.3476 73.3215 75.1078 73.3216C74.5873 73.3029 74.0692 73.3954 73.5948 73.5917C73.1203 73.7881 72.7027 74.0829 72.3752 74.4526V73.497H70.6007V81.8085H72.4402V76.3098C72.6909 75.9094 73.0468 75.5722 73.4758 75.3286C73.9049 75.0849 74.3935 74.9425 74.8979 74.9142C75.1396 74.9074 75.3813 74.93 75.6165 74.9817L75.8295 73.3756H75.8236ZM77.8553 81.8085H79.6978V73.497H77.8553V81.8085ZM77.5596 70.5466C77.5572 70.6914 77.5867 70.8351 77.6464 70.9692C77.7061 71.1033 77.7947 71.2252 77.907 71.3274C78.0193 71.4296 78.1529 71.5102 78.3 71.5644C78.4472 71.6185 78.6047 71.6451 78.7633 71.6425C78.9226 71.6451 79.0808 71.6186 79.2287 71.5646C79.3766 71.5106 79.5112 71.4302 79.6247 71.3282C79.7382 71.2261 79.8282 71.1044 79.8895 70.9702C79.9508 70.836 79.9822 70.692 79.9818 70.5466C79.9825 70.4003 79.9516 70.2554 79.8906 70.1202C79.8296 69.9849 79.7399 69.862 79.6266 69.7586C79.5133 69.6552 79.3787 69.5733 79.2305 69.5177C79.0823 69.462 78.9235 69.4337 78.7633 69.4344C78.6037 69.4337 78.4456 69.4621 78.2983 69.5179C78.1509 69.5737 78.0172 69.6558 77.9051 69.7594C77.7929 69.863 77.7046 69.986 77.6453 70.1212C77.586 70.2564 77.5568 70.401 77.5596 70.5466ZM84.5836 73.497H82.8091V81.8085H84.6516V76.0965C84.9621 75.7329 85.3584 75.4378 85.811 75.2331C86.2636 75.0284 86.7609 74.9194 87.266 74.9142C87.6255 74.9123 87.9808 74.9841 88.3059 75.1242C88.6309 75.2644 88.9173 75.4694 89.144 75.724C89.4723 76.0965 89.6852 76.5932 89.6852 77.6541V81.8085H91.5248V77.7432C91.5248 76.3125 91.229 75.4622 90.6375 74.7927C90.2443 74.3346 89.742 73.9642 89.1685 73.7098C88.5951 73.4553 87.9657 73.3235 87.3281 73.3243C86.3142 73.3154 85.3355 73.6634 84.5954 74.2961V73.4862L84.5836 73.497ZM101 81.0823V81.5412C101 82.5859 100.826 83.2202 100.498 83.6791C100.051 84.3 99.2763 84.6347 98.2914 84.6347C96.7979 84.6347 95.9462 83.9464 95.2867 83.1501L93.9321 84.3C94.5236 85.1314 96.0024 86.2247 98.3683 86.2247C100.169 86.2247 101.565 85.4661 102.302 84.1758C102.668 83.5199 102.843 82.6912 102.843 81.4521V73.497H101.068V74.2583C100.367 73.7304 99.5059 73.4092 98.5998 73.3369C97.6938 73.2646 96.7851 73.4447 95.9935 73.8534C95.2741 74.2457 94.6795 74.8028 94.2686 75.4694C93.8578 76.1361 93.6449 76.8892 93.6512 77.6541C93.6419 78.4147 93.8517 79.1642 94.2597 79.8274C94.6677 80.4907 95.2595 81.0445 95.9757 81.4332C96.6736 81.7887 97.4598 81.9746 98.2589 81.9731C99.2661 81.992 100.245 81.671 101.009 81.0715L101 81.0823ZM101 79.2089C100.712 79.569 100.337 79.8631 99.9032 80.0683C99.4696 80.2734 98.9898 80.384 98.5014 80.3913C98.1043 80.3989 97.7096 80.3335 97.3409 80.1989C96.9721 80.0643 96.6368 79.8633 96.355 79.6078C96.0732 79.3523 95.8506 79.0477 95.7006 78.712C95.5506 78.3764 95.4762 78.0166 95.4818 77.6541C95.4699 77.2973 95.5369 76.9419 95.6787 76.6092C95.8204 76.2764 96.0342 75.9732 96.3072 75.7175C96.5801 75.4618 96.9067 75.2589 97.2674 75.1209C97.6282 74.9829 98.0156 74.9126 98.4068 74.9142C98.9095 74.9163 99.405 75.024 99.8548 75.229C100.305 75.4341 100.697 75.7309 101 76.0965V79.2089ZM0 99.8242H1.93714V87.4502H0V99.8242ZM6.9116 91.5101H5.13712V99.8242H6.97667V94.1123C7.28775 93.7492 7.68415 93.4545 8.13663 93.2499C8.58911 93.0453 9.08613 92.9359 9.59107 92.93C9.95091 92.9284 10.3066 93.0003 10.632 93.1404C10.9575 93.2806 11.2445 93.4853 11.472 93.7398C11.8003 94.1096 12.0132 94.6063 12.0132 95.6671V99.8242H13.8528V95.7589C13.8528 94.3255 13.557 93.4779 12.9655 92.8058C12.5725 92.3477 12.0701 91.9775 11.4966 91.7235C10.9231 91.4695 10.2936 91.3383 9.65613 91.34C8.63713 91.3316 7.65393 91.6827 6.9116 92.3199V91.5101ZM15.8816 98.8497C16.9216 99.6161 18.2243 100.023 19.5607 99.9997C21.3352 99.9997 22.947 99.0279 22.947 97.4541C22.947 95.74 21.072 95.157 19.6376 94.8195C18.7267 94.609 18.011 94.4146 18.011 93.8477C18.011 93.1945 18.7651 92.8058 19.6583 92.8058C20.371 92.821 21.0582 93.0507 21.6132 93.459L22.5625 92.2578C21.7058 91.6349 20.6348 91.3097 19.54 91.34C17.9134 91.34 16.1714 92.1498 16.1714 93.9368C16.1714 95.103 17.1592 95.74 18.2624 96.0747C19.5991 96.4824 21.1104 96.5363 21.1104 97.4892C21.1104 98.1452 20.3148 98.5312 19.5193 98.5312C18.5362 98.5069 17.5902 98.1839 16.8309 97.6134L15.8816 98.8497ZM30.5211 98.3017C30.1915 98.3724 29.8541 98.4086 29.5155 98.4097C29.2835 98.4188 29.0519 98.3842 28.8351 98.3081C28.6184 98.2319 28.4211 98.1158 28.2556 97.967C28.022 97.7187 27.9865 97.3489 27.9865 96.9062V93.0163H30.8907V91.5101H27.9865V89.2129H26.144V91.5101H23.8194V93.0109H26.144V96.8117C26.144 97.7133 26.3392 98.4745 26.8804 99.0225C27.2055 99.3469 27.6048 99.6021 28.0499 99.77C28.4951 99.938 28.9752 100.015 29.4564 99.9943C29.9412 99.9987 30.4243 99.9396 30.8907 99.8188L30.5211 98.2963V98.3017ZM33.2153 99.8242H35.0549V91.5101H33.2153V99.8242ZM32.9196 88.5623C32.9172 88.7055 32.9461 88.8476 33.0045 88.9805C33.0629 89.1134 33.1496 89.2343 33.2597 89.3363C33.3698 89.4383 33.501 89.5193 33.6457 89.5746C33.7904 89.6299 33.9457 89.6583 34.1026 89.6583C34.262 89.6608 34.4203 89.6343 34.5684 89.5804C34.7165 89.5264 34.8513 89.4461 34.965 89.3441C35.0787 89.242 35.169 89.1204 35.2307 88.9861C35.2923 88.8519 35.324 88.7079 35.324 88.5623C35.3244 88.416 35.293 88.271 35.2318 88.1357C35.1705 88.0004 35.0805 87.8776 34.9669 87.7742C34.8534 87.6708 34.7186 87.5889 34.5702 87.5333C34.4219 87.4777 34.2629 87.4495 34.1026 87.4502C33.9442 87.4501 33.7874 87.4791 33.6415 87.5354C33.4956 87.5916 33.3636 87.6741 33.2533 87.7778C33.1429 87.8815 33.0565 88.0044 32.9992 88.1392C32.9419 88.2739 32.9148 88.4178 32.9196 88.5623ZM43.4008 98.3017C43.0712 98.3721 42.7339 98.4083 42.3953 98.4097C42.1633 98.4188 41.9316 98.3842 41.7149 98.3081C41.4981 98.2319 41.3009 98.1158 41.1354 97.967C40.9018 97.7187 40.8633 97.3489 40.8633 96.9062V93.0163H43.7705V91.5101H40.8663V89.2129H39.0386V91.5101H36.7022V93.0109H39.0386V96.8117C39.0386 97.7133 39.2308 98.4745 39.775 99.0225C40.0997 99.3473 40.4989 99.6028 40.9441 99.7708C41.3894 99.9388 41.8697 100.015 42.3509 99.9943C42.8348 99.999 43.317 99.9399 43.7823 99.8188L43.4156 98.2963L43.4008 98.3017ZM49.9812 99.9997C50.9625 99.9874 51.9066 99.6552 52.6429 99.063V99.8242H54.4174V91.5101H52.5779V97.2193C52.2689 97.5714 51.8811 97.8593 51.4405 98.0637C50.9998 98.2681 50.5164 98.3842 50.0226 98.4043C49.6869 98.4076 49.3544 98.3444 49.0481 98.219C48.7417 98.0936 48.4688 97.9091 48.2481 97.6782C47.9169 97.3246 47.7247 96.8684 47.7247 96.0181V91.5101H45.8999V95.7535C45.8999 97.1491 46.172 97.9616 46.7309 98.5987C47.1215 99.0412 47.6169 99.3971 48.1798 99.6398C48.7428 99.8824 49.3587 100.005 49.9812 99.9997ZM62.7663 98.3017C62.4367 98.3724 62.0994 98.4086 61.7608 98.4097C61.5288 98.4183 61.2973 98.3835 61.0807 98.3074C60.864 98.2312 60.6667 98.1154 60.5009 97.967C60.2702 97.7187 60.2318 97.3489 60.2318 96.9062V93.0163H63.136V91.5101H60.2318V89.2129H58.3922V91.5101H56.0677V93.0109H58.3922V96.8117C58.3922 97.7133 58.5845 98.4745 59.1287 99.0225C59.4534 99.3473 59.8525 99.6028 60.2978 99.7708C60.743 99.9388 61.2234 100.015 61.7046 99.9943C62.1885 99.9985 62.6705 99.9394 63.136 99.8188L62.7663 98.2963V98.3017ZM73.1885 96.0235C73.2034 95.9061 73.2103 95.788 73.2092 95.6698C73.2092 93.2107 71.3667 91.3508 68.8291 91.3508C66.2916 91.3508 64.3929 93.1864 64.3929 95.6698C64.3781 96.2387 64.4894 96.8044 64.7203 97.3329C64.9512 97.8615 65.2968 98.3419 65.7363 98.7454C66.1759 99.1489 66.7003 99.467 67.2781 99.6807C67.8558 99.8944 68.475 99.9992 69.0983 99.9889C70.9556 99.9889 72.2569 99.2303 72.943 98.434L71.7452 97.3894C71.4332 97.7478 71.0353 98.0361 70.582 98.2322C70.1288 98.4283 69.6323 98.5269 69.1308 98.5204C68.3797 98.528 67.654 98.272 67.1037 97.8053C66.5533 97.3387 66.2203 96.697 66.1733 96.0127L73.1885 96.0235ZM68.8883 92.8058C69.4506 92.822 69.9912 93.0077 70.4256 93.3339C70.8601 93.6602 71.1639 94.1085 71.2898 94.609H66.333C66.4803 94.0927 66.8111 93.6356 67.2735 93.3093C67.7359 92.983 68.3038 92.8059 68.8883 92.8058Z" fill="white"/>
<path d="M6.20477 0H0V41.7245H8.81621V18.4773L19.7884 34.8707H25.9281L36.9003 18.4773V41.7245H45.7165V0H39.5088L22.8553 24.9748L6.20477 0ZM82.9392 7.15069V0H55.5087V41.7245H83.5899V34.5711H64.3249V22.9475H78.367V15.7968H64.3249V7.15069H82.9392ZM90.7765 41.7245H99.5927V0H90.7765V41.7245Z" fill="#E2051C"/>
</svg>
