<svg width="79" height="79" viewBox="0 0 79 79" fill="none" xmlns="http://www.w3.org/2000/svg">
<g clip-path="url(#clip0_234_403)" filter="url(#filter0_i_234_403)">
<path d="M39.5 74.0625C30.3335 74.0625 21.5423 70.4211 15.0606 63.9394C8.5789 57.4576 4.9375 48.6665 4.9375 39.5C4.9375 30.3335 8.5789 21.5423 15.0606 15.0606C21.5423 8.5789 30.3335 4.9375 39.5 4.9375C48.6665 4.9375 57.4576 8.5789 63.9394 15.0606C70.4211 21.5423 74.0625 30.3335 74.0625 39.5C74.0625 48.6665 70.4211 57.4576 63.9394 63.9394C57.4576 70.4211 48.6665 74.0625 39.5 74.0625ZM39.5 79C49.9761 79 60.023 74.8384 67.4307 67.4307C74.8384 60.023 79 49.9761 79 39.5C79 29.0239 74.8384 18.977 67.4307 11.5693C60.023 4.1616 49.9761 0 39.5 0C29.0239 0 18.977 4.1616 11.5693 11.5693C4.1616 18.977 0 29.0239 0 39.5C0 49.9761 4.1616 60.023 11.5693 67.4307C18.977 74.8384 29.0239 79 39.5 79Z" fill="white"/>
<path d="M30.9631 24.9595C31.3669 24.7515 31.8202 24.659 32.2732 24.6921C32.7262 24.7252 33.1613 24.8826 33.5306 25.1471L50.8118 37.4908C51.1318 37.7192 51.3927 38.0207 51.5727 38.3702C51.7527 38.7198 51.8466 39.1072 51.8466 39.5004C51.8466 39.8935 51.7527 40.281 51.5727 40.6305C51.3927 40.9801 51.1318 41.2816 50.8118 41.51L33.5306 53.8537C33.1614 54.1179 32.7265 54.2752 32.2738 54.3083C31.821 54.3414 31.3679 54.249 30.9642 54.0413C30.5606 53.8336 30.222 53.5187 29.9857 53.131C29.7494 52.7434 29.6246 52.2981 29.625 51.8441V27.1566C29.6245 26.7028 29.7492 26.2576 29.9852 25.87C30.2213 25.4824 30.5596 25.1673 30.9631 24.9595Z" fill="white"/>
</g>
<defs>
<filter id="filter0_i_234_403" x="0" y="0" width="84" height="84" filterUnits="userSpaceOnUse" color-interpolation-filters="sRGB">
<feFlood flood-opacity="0" result="BackgroundImageFix"/>
<feBlend mode="normal" in="SourceGraphic" in2="BackgroundImageFix" result="shape"/>
<feColorMatrix in="SourceAlpha" type="matrix" values="0 0 0 0 0 0 0 0 0 0 0 0 0 0 0 0 0 0 127 0" result="hardAlpha"/>
<feOffset dx="5" dy="5"/>
<feGaussianBlur stdDeviation="5"/>
<feComposite in2="hardAlpha" operator="arithmetic" k2="-1" k3="1"/>
<feColorMatrix type="matrix" values="0 0 0 0 0 0 0 0 0 0 0 0 0 0 0 0 0 0 0.25 0"/>
<feBlend mode="normal" in2="shape" result="effect1_innerShadow_234_403"/>
</filter>
<clipPath id="clip0_234_403">
<rect width="79" height="79" fill="white"/>
</clipPath>
</defs>
</svg>
