<svg width="50" height="50" viewBox="0 0 50 50" fill="none" xmlns="http://www.w3.org/2000/svg">
<path d="M48.4375 10.9366C48.8519 10.9366 49.2493 11.1013 49.5424 11.3943C49.8354 11.6873 50 12.0847 50 12.4991V37.4991C50 37.9135 49.8354 38.311 49.5424 38.604C49.2493 38.897 48.8519 39.0616 48.4375 39.0616C48.0231 39.0616 47.6257 38.897 47.3326 38.604C47.0396 38.311 46.875 37.9135 46.875 37.4991V27.3523L27.2906 38.7148C25.6031 39.6929 23.4375 38.5085 23.4375 36.5366V27.3491L3.85313 38.7116C2.16563 39.696 0 38.5116 0 36.5398V13.4616C0 11.4929 2.16563 10.3054 3.85313 11.2866L23.4375 22.6491V13.4616C23.4375 11.4929 25.6031 10.3054 27.2906 11.2866L46.875 22.6491V12.4991C46.875 12.0847 47.0396 11.6873 47.3326 11.3943C47.6257 11.1013 48.0231 10.9366 48.4375 10.9366Z" fill="white"/>
</svg>
